#Comment line ignore any data following # character 
#Hierarchical Translation and Rotation (.htr) file 
[Header]	
#Header keywords are followed by a single value 
FileType HTR		#Single word string
DataType HTRS		#Translation followed by rotation and scale data
FileVersion 1		#integer
NumSegments 84		#integer
NumFrames 2		#integer
DataFrameRate 30		#integer, data frame rate in this file
EulerRotationOrder ZYX
CalibrationUnits mm
RotationUnits Degrees
GlobalAxisofGravity Y
BoneLengthAxis Y
ScaleFactor 1.00
[SegmentNames&Hierarchy]
#CHILD	PARENT
MASTER GLOBAL
root MASTER
chest root
L_mid_tent01 root
R_mid_tent01 root
spine01 root
Bip01_Neck chest
L_humerus chest
R_humerus chest
weapon_bone chest
Bip01_Head Bip01_Neck
eye_left_bone Bip01_Head
eye_right_bone Bip01_Head
L_forearm L_humerus
L_front_hand L_forearm
L_weapon_bone L_forearm
L_front_hand01_01 L_front_hand
L_front_hand02_01 L_front_hand
L_front_hand03_01 L_front_hand
L_front_hand01_02 L_front_hand01_01
L_front_hand02_02 L_front_hand02_01
L_front_hand03_02 L_front_hand03_01
R_forearm R_humerus
R_front_hand R_forearm
R_weapon_bone R_forearm
R_front_hand01_01 R_front_hand
R_front_hand02_01 R_front_hand
R_front_hand03_01 R_front_hand
R_front_hand01_02 R_front_hand01_01
R_front_hand02_02 R_front_hand02_01
R_front_hand03_02 R_front_hand03_01
null_rope01_connect L_mid_tent01
Rope1_Seg01 null_rope01_connect
Rope1_Seg02 Rope1_Seg01
Rope1_Seg03 Rope1_Seg02
Rope1_Seg04 Rope1_Seg03
Rope1_Seg05 Rope1_Seg04
Rope1_Seg06 Rope1_Seg05
Rope1_Seg07 Rope1_Seg06
Rope1_Seg09 Rope1_Seg07
L_mid_hand01 Rope1_Seg09
L_mid_hand02 Rope1_Seg09
L_mid_hand03 Rope1_Seg09
null_rope02_connect R_mid_tent01
Rope2_Seg01 null_rope02_connect
Rope2_Seg02 Rope2_Seg01
Rope2_Seg03 Rope2_Seg02
Rope2_Seg04 Rope2_Seg03
Rope2_Seg05 Rope2_Seg04
Rope2_Seg06 Rope2_Seg05
Rope2_Seg07 Rope2_Seg06
Rope2_Seg09 Rope2_Seg07
R_mid_hand01 Rope2_Seg09
R_mid_hand02 Rope2_Seg09
R_mid_hand03 Rope2_Seg09
spine02 spine01
spine03 spine02
pelvis spine03
null_rope03_connect pelvis
null_rope04_connect pelvis
Rope3_Seg01 null_rope03_connect
Rope3_Seg02 Rope3_Seg01
Rope3_Seg03 Rope3_Seg02
Rope3_Seg04 Rope3_Seg03
Rope3_Seg05 Rope3_Seg04
Rope3_Seg06 Rope3_Seg05
Rope3_Seg07 Rope3_Seg06
Rope3_Seg08 Rope3_Seg07
Rope3_Seg09 Rope3_Seg08
R_rear_hand01 Rope3_Seg09
R_rear_hand02 Rope3_Seg09
R_rear_hand03 Rope3_Seg09
Rope4_Seg01 null_rope04_connect
Rope4_Seg02 Rope4_Seg01
Rope4_Seg03 Rope4_Seg02
Rope4_Seg04 Rope4_Seg03
Rope4_Seg05 Rope4_Seg04
Rope4_Seg06 Rope4_Seg05
Rope4_Seg07 Rope4_Seg06
Rope4_Seg08 Rope4_Seg07
Rope4_Seg09 Rope4_Seg08
L_rear_hand01 Rope4_Seg09
L_rear_hand02 Rope4_Seg09
L_rear_hand03 Rope4_Seg09
[BasePosition]
#SegmentName Tx, Ty, Tz, Rx, Ry, Rz, BoneLength
MASTER 0.000000 0.000000 0.000000 -90.000000 0.000000 0.000000 10.000000 
root 0.000000 0.000000 0.000000 0.000000 0.000000 0.000000 10.000000 
chest 0.000000 0.000000 0.000000 0.000000 0.000000 0.000000 10.000000 
L_mid_tent01 0.000000 0.000000 0.000000 0.000000 0.000000 0.000000 10.000000 
R_mid_tent01 0.000000 0.000000 0.000000 0.000000 0.000000 0.000000 10.000000 
spine01 0.000000 0.000000 0.000000 0.000000 0.000000 0.000000 10.000000 
Bip01_Neck 0.000000 0.000000 0.000000 0.000000 0.000000 0.000000 10.000000 
L_humerus 0.000000 0.000000 0.000000 0.000000 0.000000 0.000000 10.000000 
R_humerus 0.000000 0.000000 0.000000 0.000000 0.000000 0.000000 10.000000 
weapon_bone 0.000000 0.000000 0.000000 0.000000 0.000000 0.000000 10.000000 
Bip01_Head 0.000000 0.000000 0.000000 0.000000 0.000000 0.000000 10.000000 
eye_left_bone 0.000000 0.000000 0.000000 0.000000 0.000000 0.000000 10.000000 
eye_right_bone 0.000000 0.000000 0.000000 0.000000 0.000000 0.000000 10.000000 
L_forearm 0.000000 0.000000 0.000000 0.000000 0.000000 0.000000 10.000000 
L_front_hand 0.000000 0.000000 0.000000 0.000000 0.000000 0.000000 10.000000 
L_weapon_bone 0.000000 0.000000 0.000000 0.000000 0.000000 0.000000 10.000000 
L_front_hand01_01 0.000000 0.000000 0.000000 0.000000 0.000000 0.000000 10.000000 
L_front_hand02_01 0.000000 0.000000 0.000000 0.000000 0.000000 0.000000 10.000000 
L_front_hand03_01 0.000000 0.000000 0.000000 0.000000 0.000000 0.000000 10.000000 
L_front_hand01_02 0.000000 0.000000 0.000000 0.000000 0.000000 0.000000 10.000000 
L_front_hand02_02 0.000000 0.000000 0.000000 0.000000 0.000000 0.000000 10.000000 
L_front_hand03_02 0.000000 0.000000 0.000000 0.000000 0.000000 0.000000 10.000000 
R_forearm 0.000000 0.000000 0.000000 0.000000 0.000000 0.000000 10.000000 
R_front_hand 0.000000 0.000000 0.000000 0.000000 0.000000 0.000000 10.000000 
R_weapon_bone 0.000000 0.000000 0.000000 0.000000 0.000000 0.000000 10.000000 
R_front_hand01_01 0.000000 0.000000 0.000000 0.000000 0.000000 0.000000 10.000000 
R_front_hand02_01 0.000000 0.000000 0.000000 0.000000 0.000000 0.000000 10.000000 
R_front_hand03_01 0.000000 0.000000 0.000000 0.000000 0.000000 0.000000 10.000000 
R_front_hand01_02 0.000000 0.000000 0.000000 0.000000 0.000000 0.000000 10.000000 
R_front_hand02_02 0.000000 0.000000 0.000000 0.000000 0.000000 0.000000 10.000000 
R_front_hand03_02 0.000000 0.000000 0.000000 0.000000 0.000000 0.000000 10.000000 
null_rope01_connect 0.000000 0.000000 0.000000 0.000000 0.000000 0.000000 10.000000 
Rope1_Seg01 0.000000 0.000000 0.000000 0.000000 0.000000 0.000000 10.000000 
Rope1_Seg02 0.000000 0.000000 0.000000 0.000000 0.000000 0.000000 10.000000 
Rope1_Seg03 0.000000 0.000000 0.000000 0.000000 0.000000 0.000000 10.000000 
Rope1_Seg04 0.000000 0.000000 0.000000 0.000000 0.000000 0.000000 10.000000 
Rope1_Seg05 0.000000 0.000000 0.000000 0.000000 0.000000 0.000000 10.000000 
Rope1_Seg06 0.000000 0.000000 0.000000 0.000000 0.000000 0.000000 10.000000 
Rope1_Seg07 0.000000 0.000000 0.000000 0.000000 0.000000 0.000000 10.000000 
Rope1_Seg09 0.000000 0.000000 0.000000 0.000000 0.000000 0.000000 10.000000 
L_mid_hand01 0.000000 0.000000 0.000000 0.000000 0.000000 0.000000 10.000000 
L_mid_hand02 0.000000 0.000000 0.000000 0.000000 0.000000 0.000000 10.000000 
L_mid_hand03 0.000000 0.000000 0.000000 0.000000 0.000000 0.000000 10.000000 
null_rope02_connect 0.000000 0.000000 0.000000 0.000000 0.000000 0.000000 10.000000 
Rope2_Seg01 0.000000 0.000000 0.000000 0.000000 0.000000 0.000000 10.000000 
Rope2_Seg02 0.000000 0.000000 0.000000 0.000000 0.000000 0.000000 10.000000 
Rope2_Seg03 0.000000 0.000000 0.000000 0.000000 0.000000 0.000000 10.000000 
Rope2_Seg04 0.000000 0.000000 0.000000 0.000000 0.000000 0.000000 10.000000 
Rope2_Seg05 0.000000 0.000000 0.000000 0.000000 0.000000 0.000000 10.000000 
Rope2_Seg06 0.000000 0.000000 0.000000 0.000000 0.000000 0.000000 10.000000 
Rope2_Seg07 0.000000 0.000000 0.000000 0.000000 0.000000 0.000000 10.000000 
Rope2_Seg09 0.000000 0.000000 0.000000 0.000000 0.000000 0.000000 10.000000 
R_mid_hand01 0.000000 0.000000 0.000000 0.000000 0.000000 0.000000 10.000000 
R_mid_hand02 0.000000 0.000000 0.000000 0.000000 0.000000 0.000000 10.000000 
R_mid_hand03 0.000000 0.000000 0.000000 0.000000 0.000000 0.000000 10.000000 
spine02 0.000000 0.000000 0.000000 0.000000 0.000000 0.000000 10.000000 
spine03 0.000000 0.000000 0.000000 0.000000 0.000000 0.000000 10.000000 
pelvis 0.000000 0.000000 0.000000 0.000000 0.000000 0.000000 10.000000 
null_rope03_connect 0.000000 0.000000 0.000000 0.000000 0.000000 0.000000 10.000000 
null_rope04_connect 0.000000 0.000000 0.000000 0.000000 0.000000 0.000000 10.000000 
Rope3_Seg01 0.000000 0.000000 0.000000 0.000000 0.000000 0.000000 10.000000 
Rope3_Seg02 0.000000 0.000000 0.000000 0.000000 0.000000 0.000000 10.000000 
Rope3_Seg03 0.000000 0.000000 0.000000 0.000000 0.000000 0.000000 10.000000 
Rope3_Seg04 0.000000 0.000000 0.000000 0.000000 0.000000 0.000000 10.000000 
Rope3_Seg05 0.000000 0.000000 0.000000 0.000000 0.000000 0.000000 10.000000 
Rope3_Seg06 0.000000 0.000000 0.000000 0.000000 0.000000 0.000000 10.000000 
Rope3_Seg07 0.000000 0.000000 0.000000 0.000000 0.000000 0.000000 10.000000 
Rope3_Seg08 0.000000 0.000000 0.000000 0.000000 0.000000 0.000000 10.000000 
Rope3_Seg09 0.000000 0.000000 0.000000 0.000000 0.000000 0.000000 10.000000 
R_rear_hand01 0.000000 0.000000 0.000000 0.000000 0.000000 0.000000 10.000000 
R_rear_hand02 0.000000 0.000000 0.000000 0.000000 0.000000 0.000000 10.000000 
R_rear_hand03 0.000000 0.000000 0.000000 0.000000 0.000000 0.000000 10.000000 
Rope4_Seg01 0.000000 0.000000 0.000000 0.000000 0.000000 0.000000 10.000000 
Rope4_Seg02 0.000000 0.000000 0.000000 0.000000 0.000000 0.000000 10.000000 
Rope4_Seg03 0.000000 0.000000 0.000000 0.000000 0.000000 0.000000 10.000000 
Rope4_Seg04 0.000000 0.000000 0.000000 0.000000 0.000000 0.000000 10.000000 
Rope4_Seg05 0.000000 0.000000 0.000000 0.000000 0.000000 0.000000 10.000000 
Rope4_Seg06 0.000000 0.000000 0.000000 0.000000 0.000000 0.000000 10.000000 
Rope4_Seg07 0.000000 0.000000 0.000000 0.000000 0.000000 0.000000 10.000000 
Rope4_Seg08 0.000000 0.000000 0.000000 0.000000 0.000000 0.000000 10.000000 
Rope4_Seg09 0.000000 0.000000 0.000000 0.000000 0.000000 0.000000 10.000000 
L_rear_hand01 0.000000 0.000000 0.000000 0.000000 0.000000 0.000000 10.000000 
L_rear_hand02 0.000000 0.000000 0.000000 0.000000 0.000000 0.000000 10.000000 
L_rear_hand03 0.000000 0.000000 0.000000 0.000000 0.000000 0.000000 10.000000 
#Beginning of Data. Separated by tabs
#Fr	Tx	Ty	Tz	Rx	Ry	Rz	SF
[MASTER]
17 0.000000 0.000000 0.000000 0.001660 0.001660 0.001660 0.000000
18 0.000000 0.000000 0.000000 0.001660 0.001660 0.001660 0.000000
[root]
17 19.338764 353.046021 1639.640381 -68.644615 -17.505415 -138.275040 1677.330078
18 26.108816 359.365387 1617.090332 -67.099113 -14.491145 -141.765427 1656.745728
[chest]
17 -84.512650 -34.090519 0.000000 -2.851587 -9.327869 176.204681 91.129311
18 -84.512650 -34.090519 0.000000 -2.864885 -8.625964 176.289322 91.129311
[L_mid_tent01]
17 27.299080 22.179335 -249.918671 112.988686 10.694157 154.930145 252.381668
18 27.299078 22.179329 -249.918671 112.479904 8.401660 153.268402 252.381668
[R_mid_tent01]
17 23.228794 24.509907 226.238495 -101.588684 -43.133068 24.920359 228.744751
18 23.228794 24.509907 226.238495 -106.666634 -39.292778 27.661917 228.744751
[spine01]
17 -0.361383 -0.195265 0.000000 0.001936 0.001328 21.113712 0.410763
18 -0.361383 -0.195265 0.000000 0.001936 0.001328 21.095268 0.410763
[Bip01_Neck]
17 165.484543 71.581718 0.000119 175.896118 1.177290 24.871183 180.302734
18 165.484543 71.581718 0.000119 175.896118 1.177290 24.871183 180.302734
[L_humerus]
17 -13.983130 -135.272980 -120.471481 -71.199356 13.632721 0.536218 181.680161
18 -13.983130 -135.272980 -120.471481 -69.294815 14.602873 3.211993 181.680161
[R_humerus]
17 -13.983309 -135.273102 125.287651 141.039932 -33.097630 -13.042670 184.909012
18 -13.983309 -135.273102 125.287651 141.303604 -32.918236 -14.317190 184.909012
[weapon_bone]
17 235.964890 -300.705902 0.000000 0.000000 -89.951546 -128.212341 382.234833
18 235.964890 -300.705902 0.000000 0.000000 -89.951546 -128.212341 382.234833
[Bip01_Head]
17 259.948639 76.956017 0.433197 36.572723 12.347742 -67.991112 271.100922
18 261.309814 75.169525 0.225143 40.487038 13.609653 -69.436050 271.906830
[eye_left_bone]
17 32.015484 158.918686 -75.690208 -104.218590 -85.597984 4.718000 178.910995
18 31.917725 158.860840 -75.671349 -104.218590 -85.597984 4.718000 178.834167
[eye_right_bone]
17 43.030342 159.826385 52.984554 75.788536 -85.594551 4.713911 173.791397
18 42.858784 159.739197 53.013332 75.788536 -85.594551 4.713911 173.677567
[L_forearm]
17 322.776093 0.000000 -0.000119 0.001585 0.001732 -5.074275 322.776093
18 322.776093 0.000000 -0.000119 0.001603 0.001715 -3.861653 322.776093
[L_front_hand]
17 241.149185 -0.042021 -3.300071 179.187225 8.169621 3.109292 241.171753
18 241.149185 -0.042021 -3.300071 -125.543076 3.740383 4.943157 241.171753
[L_weapon_bone]
17 156.183838 0.000000 0.000000 0.000319 0.002325 -74.382004 156.183838
18 156.183838 0.000000 0.000000 0.000381 0.002316 -71.314835 156.183838
[L_front_hand01_01]
17 86.095154 20.947098 -0.655860 -0.300402 -0.517296 68.192429 88.609184
18 86.095154 20.947098 -0.655860 -0.298353 -0.518480 67.739128 88.609184
[L_front_hand02_01]
17 86.935165 -11.437475 24.513514 144.444565 -56.208530 -49.649292 91.046425
18 86.935165 -11.437475 24.513514 143.898499 -55.942963 -48.993938 91.046425
[L_front_hand03_01]
17 86.637497 -14.123976 -20.424902 -144.634735 54.429893 -51.562538 90.126129
18 86.637497 -14.123976 -20.424902 -144.124176 54.165104 -50.935402 90.126129
[L_front_hand01_02]
17 71.020905 -0.000179 0.000030 0.001534 0.001777 -8.378851 71.020905
18 71.020905 -0.000179 0.000030 0.001534 0.001777 -8.378851 71.020905
[L_front_hand02_02]
17 71.020927 -0.000119 0.000060 0.001534 0.001777 -8.378851 71.020927
18 71.020927 -0.000119 0.000060 0.001534 0.001777 -8.378851 71.020927
[L_front_hand03_02]
17 71.020905 -0.000060 0.000060 0.001534 0.001777 -8.378851 71.020905
18 71.020905 -0.000060 0.000060 0.001534 0.001777 -8.378851 71.020905
[R_forearm]
17 322.776428 -0.000060 0.000030 0.119808 -0.172671 -35.759762 322.776428
18 322.776428 -0.000060 0.000030 0.119771 -0.178431 -34.758217 322.776428
[R_front_hand]
17 238.847015 -0.006795 2.210259 -2.635298 -10.645461 -26.312506 238.857239
18 238.847015 -0.006795 2.210259 -2.635298 -10.645461 -26.312506 238.857239
[R_weapon_bone]
17 155.664093 0.002503 -0.000030 0.003487 0.001180 -90.988930 155.664078
18 155.664093 0.002503 -0.000030 0.003487 0.001180 -90.988930 155.664078
[R_front_hand01_01]
17 87.624611 14.231146 22.918642 -154.633499 -59.950619 61.746044 91.683487
18 87.624611 14.231146 22.918642 -154.633499 -59.950615 61.746044 91.683487
[R_front_hand02_01]
17 89.356956 14.367283 -19.491137 154.602661 58.302849 63.744389 92.579636
18 89.356956 14.367283 -19.491137 154.602661 58.302856 63.744389 92.579636
[R_front_hand03_01]
17 87.286232 -22.307278 -0.143439 0.162155 -0.423168 -75.767921 90.091743
18 87.286232 -22.307278 -0.143439 0.162155 -0.423168 -75.767906 90.091743
[R_front_hand01_02]
17 71.020905 0.000060 0.000119 0.002303 0.000452 67.808228 71.020905
18 71.020905 0.000060 0.000119 0.002334 0.000249 77.809143 71.020905
[R_front_hand02_02]
17 71.020844 -0.000030 -0.000119 0.002303 0.000452 67.808228 71.020836
18 71.020844 -0.000030 -0.000119 0.002334 0.000249 77.809143 71.020836
[R_front_hand03_02]
17 71.020905 0.000000 0.000030 0.002303 0.000452 67.808228 71.020905
18 71.020905 0.000000 0.000030 0.002334 0.000249 77.809143 71.020905
[null_rope01_connect]
17 328.732483 0.000000 -0.000238 -149.461563 34.529613 51.118107 328.732483
18 328.732483 0.000000 -0.000238 -152.400299 33.420273 43.635876 328.732483
[Rope1_Seg01]
17 -0.000029 0.000019 0.000076 57.708336 50.684975 69.994011 0.000084
18 -0.000028 0.000018 0.000072 53.030762 47.924595 64.929741 0.000079
[Rope1_Seg02]
17 139.999863 -0.000179 0.000000 -1.711555 -8.340706 2.407928 139.999863
18 139.999863 -0.000179 0.000000 -2.365603 -9.051076 1.697482 139.999863
[Rope1_Seg03]
17 139.999924 0.000060 -0.000060 -3.257166 -10.334083 2.690960 139.999924
18 139.999924 0.000060 -0.000060 -4.121666 -10.712241 1.581215 139.999924
[Rope1_Seg04]
17 139.999924 -0.000060 -0.000119 -8.400780 -16.113291 3.882527 139.999924
18 139.999924 -0.000060 -0.000119 -9.962173 -16.366541 1.342533 139.999924
[Rope1_Seg05]
17 139.999832 0.000119 -0.000060 -13.885398 -15.694202 1.517307 139.999832
18 139.999832 0.000119 -0.000060 -12.435308 -13.389099 -1.258013 139.999832
[Rope1_Seg06]
17 139.999954 0.000119 -0.000060 1.186739 2.273683 -1.107652 139.999954
18 139.999954 0.000119 -0.000060 2.922587 2.705025 0.704120 139.999954
[Rope1_Seg07]
17 139.999985 0.000060 0.000000 9.917853 15.135883 -0.790711 139.999985
18 139.999985 0.000060 0.000000 11.924335 13.229920 3.296680 139.999985
[Rope1_Seg09]
17 121.602913 0.000119 -0.000089 135.955017 -1.361548 0.845974 121.602913
18 121.602913 0.000119 -0.000089 169.775864 -1.360855 0.848422 121.602913
[L_mid_hand01]
17 103.859421 1.038730 8.195221 106.469955 -29.040792 -8.698214 104.187431
18 103.859421 1.038730 8.195221 107.577660 -34.828659 -10.787907 104.187431
[L_mid_hand02]
17 105.572853 -4.139662 -10.864139 -141.485733 24.338076 -26.779961 106.211075
18 105.572853 -4.139662 -10.864139 -143.853622 28.010670 -32.143456 106.211075
[L_mid_hand03]
17 104.641464 17.579376 -3.913581 -16.489403 9.091095 31.987354 106.179977
18 104.641464 17.579376 -3.913581 -15.468971 10.758886 37.895103 106.179977
[null_rope02_connect]
17 328.732849 0.000179 -0.000119 -170.742981 -7.685931 -88.905243 328.732849
18 328.732849 0.000179 -0.000119 -174.161011 -7.364274 -95.222923 328.732849
[Rope2_Seg01]
17 0.000095 0.000153 0.000038 94.802223 -8.787916 -127.246346 0.000184
18 0.000095 0.000153 0.000041 95.404182 0.535319 -129.519211 0.000184
[Rope2_Seg02]
17 139.999741 -0.000060 -0.000119 -0.197881 6.655622 6.716663 139.999756
18 139.999741 -0.000060 -0.000119 -0.261110 4.507482 5.784807 139.999756
[Rope2_Seg03]
17 140.000107 0.000030 0.000000 0.577721 31.431391 38.129936 140.000107
18 140.000107 0.000030 0.000000 -0.199568 17.685736 24.630970 140.000107
[Rope2_Seg04]
17 139.999802 0.000000 -0.000060 -6.088439 29.310442 56.582310 139.999802
18 139.999802 0.000000 -0.000060 3.906979 30.532349 64.799179 139.999802
[Rope2_Seg05]
17 139.999985 -0.000060 0.000119 -5.279761 5.101124 31.991043 139.999985
18 139.999985 -0.000060 0.000119 -2.881530 9.996787 31.134117 139.999985
[Rope2_Seg06]
17 139.999893 -0.000030 -0.000119 -0.937799 0.764600 14.550920 139.999893
18 139.999893 -0.000030 -0.000119 -0.979565 5.308206 22.308743 139.999893
[Rope2_Seg07]
17 139.999893 0.000060 -0.000060 -0.064613 0.242840 6.112359 139.999893
18 139.999893 0.000060 -0.000060 -0.169520 1.725840 8.707950 139.999893
[Rope2_Seg09]
17 121.338966 0.000089 -0.000060 33.793236 -1.359788 -0.847141 121.338966
18 121.338966 0.000089 -0.000060 33.793236 -1.359788 -0.847141 121.338966
[R_mid_hand01]
17 104.680779 11.144459 -10.335981 -25.691973 41.382759 56.682861 105.778534
18 104.680779 11.144459 -10.335981 -29.407896 39.088135 50.938297 105.778534
[R_mid_hand02]
17 104.070427 2.443552 8.231699 61.307613 -58.887119 25.644407 104.424065
18 104.070427 2.443552 8.231699 64.732193 -54.470348 21.549253 104.424065
[R_mid_hand03]
17 106.028137 -11.221827 -5.996406 -174.198029 14.736779 -65.507393 106.788818
18 106.028137 -11.221827 -5.996406 -172.927750 14.177900 -60.425400 106.788818
[spine02]
17 129.756927 0.001550 0.000119 0.390319 -4.041665 -13.354479 129.756927
18 129.756927 0.001550 0.000119 0.377965 -4.042983 -13.178478 129.756927
[spine03]
17 78.614044 0.081558 -4.899013 2.182031 3.675158 20.837887 78.766579
18 78.614044 0.081553 -4.899013 2.174983 3.682734 20.742229 78.766579
[pelvis]
17 169.435242 0.051022 0.000000 -0.061859 -0.179752 14.975391 169.435257
18 169.435242 0.051022 0.000000 -0.061753 -0.179788 14.907564 169.435257
[null_rope03_connect]
17 -1.257226 -2.466202 137.391083 -59.217133 -44.347015 132.652191 137.418976
18 -1.257226 -2.466202 137.391083 -58.916939 -40.039574 130.985672 137.418976
[null_rope04_connect]
17 -1.259640 -2.480268 -137.844437 -59.217133 -44.347015 132.652191 137.872513
18 -1.259640 -2.480268 -137.844437 -58.916939 -40.039574 130.985672 137.872513
[Rope3_Seg01]
17 0.000000 0.000000 0.000000 -129.893478 -28.584057 -83.448181 0.000000
18 0.000000 0.000000 0.000000 -123.184280 -27.630980 -97.256653 0.000000
[Rope3_Seg02]
17 139.999924 -0.000119 0.000060 0.838379 20.181822 -0.125404 139.999924
18 139.999924 -0.000119 0.000060 4.566577 19.968279 0.821084 139.999924
[Rope3_Seg03]
17 139.999924 -0.000119 0.000119 3.260981 16.010601 1.614578 139.999924
18 139.999924 -0.000119 0.000119 6.889046 17.167633 0.867415 139.999924
[Rope3_Seg04]
17 139.999924 0.000119 0.000000 2.993721 9.618598 1.047985 139.999924
18 139.999924 0.000119 0.000000 6.203912 11.279406 -0.485028 139.999924
[Rope3_Seg05]
17 139.999924 -0.000238 0.000060 8.597349 19.591734 -8.902658 139.999924
18 139.999924 -0.000238 0.000060 14.858390 21.796524 -11.872342 139.999924
[Rope3_Seg06]
17 139.999893 -0.000119 -0.000060 9.002995 22.069138 -18.191299 139.999893
18 139.999893 -0.000119 -0.000060 11.082475 17.302177 -19.535448 139.999893
[Rope3_Seg07]
17 139.999771 0.000060 -0.000119 3.979886 8.535934 -9.573725 139.999771
18 139.999771 0.000060 -0.000119 3.857478 5.377320 -9.061276 139.999771
[Rope3_Seg08]
17 139.999985 -0.000060 0.000000 2.073010 3.850499 -4.983509 139.999985
18 139.999985 -0.000060 0.000000 1.957236 2.390060 -4.753013 139.999985
[Rope3_Seg09]
17 90.185997 -0.000179 -0.000060 53.496628 -1.359073 -0.849305 90.185997
18 90.185997 -0.000179 -0.000060 50.782001 -1.359498 -0.846027 90.185997
[R_rear_hand01]
17 103.366196 -6.073594 -10.757982 -177.714203 24.565960 -73.910950 104.101845
18 103.366196 -6.073594 -10.757982 -176.971848 24.489786 -72.132690 104.101845
[R_rear_hand02]
17 100.509819 12.039542 -7.992327 -12.874829 36.868488 72.167213 101.543350
18 100.509819 12.039542 -7.992327 -14.049797 36.491398 70.196114 101.543350
[R_rear_hand03]
17 101.539970 5.215704 5.435467 71.484581 -71.816628 21.513813 101.819031
18 101.539970 5.215704 5.435467 72.929405 -70.273872 19.984938 101.819031
[Rope4_Seg01]
17 -0.000014 -0.000038 -0.000153 -137.088867 -22.196806 152.405258 0.000158
18 -0.000014 -0.000036 -0.000153 -92.564369 13.830305 107.118729 0.000157
[Rope4_Seg02]
17 139.999985 0.000060 0.000119 -0.707526 7.419737 3.361172 139.999985
18 139.999985 0.000060 0.000119 -0.864201 4.411594 -0.378084 139.999985
[Rope4_Seg03]
17 139.999924 0.000000 -0.000238 -10.330466 10.771674 -1.633267 139.999924
18 139.999924 0.000000 -0.000238 -1.131915 6.946459 -0.879662 139.999924
[Rope4_Seg04]
17 139.999985 0.000000 0.000119 13.143963 14.240164 21.698673 139.999985
18 139.999985 0.000000 0.000119 -1.294313 16.707960 -2.118099 139.999985
[Rope4_Seg05]
17 139.999802 -0.000060 -0.000119 14.160216 14.039457 45.559948 139.999802
18 139.999802 -0.000060 -0.000119 0.762206 12.337081 7.441556 139.999802
[Rope4_Seg06]
17 139.999924 0.000000 0.000060 -0.352174 5.875668 9.641951 139.999924
18 139.999924 0.000000 0.000060 0.081196 3.349449 2.042596 139.999924
[Rope4_Seg07]
17 139.999802 0.000000 0.000000 -0.583174 2.722668 4.555227 139.999802
18 139.999802 0.000000 0.000000 0.163020 2.033079 1.008676 139.999802
[Rope4_Seg08]
17 139.999924 0.000000 0.000119 -1.953752 1.377883 2.367627 139.999924
18 139.999924 0.000000 0.000119 -1.441890 1.146409 0.565948 139.999924
[Rope4_Seg09]
17 90.185791 0.000060 0.000060 -168.799362 2.230063 0.850823 90.185791
18 90.185791 0.000060 0.000060 -171.320038 2.230437 0.850601 90.185791
[L_rear_hand01]
17 101.696655 -8.392275 -7.654577 -17.229485 -35.260639 115.223572 102.329041
18 101.696655 -8.392275 -7.654577 -19.242409 -34.302250 118.756416 102.329041
[L_rear_hand02]
17 102.726799 -1.568258 5.773216 75.967529 65.877556 163.290298 102.900848
18 102.726799 -1.568258 5.773216 77.431374 62.898346 164.912399 102.900848
[L_rear_hand03]
17 104.552910 9.721220 -10.420293 -174.915207 -24.166666 -112.862358 105.519653
18 104.552910 9.721220 -10.420293 -173.558777 -23.860987 -116.189835 105.519653
